<mxfile host="app.diagrams.net" modified="2023-07-24T19:47:52.281Z" agent="Mozilla/5.0 (Windows NT 10.0; Win64; x64) AppleWebKit/537.36 (KHTML, like Gecko) Chrome/114.0.0.0 Safari/537.36" etag="oUhK3sVt-GUCeGAV4_VB" version="21.6.5" type="device">
  <diagram name="Página-1" id="e8nPapWINbScbidNu6U9">
    <mxGraphModel dx="1049" dy="621" grid="1" gridSize="10" guides="1" tooltips="1" connect="1" arrows="1" fold="1" page="1" pageScale="1" pageWidth="827" pageHeight="1169" math="0" shadow="0">
      <root>
        <mxCell id="0" />
        <mxCell id="1" parent="0" />
        <mxCell id="hanlL4ktnhCZCZ7IdgbA-1" value="&lt;div&gt;Você deverá criar a modelagem para o catálogo de filmes, observando a seguinte situação:&lt;/div&gt;&lt;div&gt;&lt;br&gt;&lt;/div&gt;&lt;div&gt;- um filme possui apenas um único gênero.&lt;/div&gt;&lt;div&gt;- um gênero pode definir mais de um filme.&lt;/div&gt;" style="text;html=1;align=center;verticalAlign=middle;resizable=0;points=[];autosize=1;strokeColor=none;fillColor=none;" vertex="1" parent="1">
          <mxGeometry x="159" y="50" width="510" height="70" as="geometry" />
        </mxCell>
        <mxCell id="hanlL4ktnhCZCZ7IdgbA-13" style="edgeStyle=orthogonalEdgeStyle;rounded=0;orthogonalLoop=1;jettySize=auto;html=1;exitX=0.5;exitY=1;exitDx=0;exitDy=0;entryX=0.5;entryY=0;entryDx=0;entryDy=0;endArrow=none;endFill=0;" edge="1" parent="1" source="hanlL4ktnhCZCZ7IdgbA-2" target="hanlL4ktnhCZCZ7IdgbA-12">
          <mxGeometry relative="1" as="geometry" />
        </mxCell>
        <mxCell id="hanlL4ktnhCZCZ7IdgbA-2" value="Gênero" style="rounded=0;whiteSpace=wrap;html=1;" vertex="1" parent="1">
          <mxGeometry x="549" y="190" width="120" height="60" as="geometry" />
        </mxCell>
        <mxCell id="hanlL4ktnhCZCZ7IdgbA-5" style="edgeStyle=orthogonalEdgeStyle;rounded=0;orthogonalLoop=1;jettySize=auto;html=1;exitX=1;exitY=0.5;exitDx=0;exitDy=0;entryX=0;entryY=0.5;entryDx=0;entryDy=0;endArrow=none;endFill=0;" edge="1" parent="1" source="hanlL4ktnhCZCZ7IdgbA-3" target="hanlL4ktnhCZCZ7IdgbA-4">
          <mxGeometry relative="1" as="geometry" />
        </mxCell>
        <mxCell id="hanlL4ktnhCZCZ7IdgbA-10" style="edgeStyle=orthogonalEdgeStyle;rounded=0;orthogonalLoop=1;jettySize=auto;html=1;exitX=0.5;exitY=1;exitDx=0;exitDy=0;entryX=0.5;entryY=0;entryDx=0;entryDy=0;endArrow=none;endFill=0;" edge="1" parent="1" source="hanlL4ktnhCZCZ7IdgbA-3" target="hanlL4ktnhCZCZ7IdgbA-9">
          <mxGeometry relative="1" as="geometry" />
        </mxCell>
        <mxCell id="hanlL4ktnhCZCZ7IdgbA-11" style="edgeStyle=orthogonalEdgeStyle;rounded=0;orthogonalLoop=1;jettySize=auto;html=1;exitX=0.5;exitY=1;exitDx=0;exitDy=0;entryX=0.5;entryY=0;entryDx=0;entryDy=0;endArrow=none;endFill=0;" edge="1" parent="1" source="hanlL4ktnhCZCZ7IdgbA-3" target="hanlL4ktnhCZCZ7IdgbA-8">
          <mxGeometry relative="1" as="geometry" />
        </mxCell>
        <mxCell id="hanlL4ktnhCZCZ7IdgbA-3" value="Filme" style="rounded=0;whiteSpace=wrap;html=1;" vertex="1" parent="1">
          <mxGeometry x="159" y="190" width="120" height="60" as="geometry" />
        </mxCell>
        <mxCell id="hanlL4ktnhCZCZ7IdgbA-6" style="edgeStyle=orthogonalEdgeStyle;rounded=0;orthogonalLoop=1;jettySize=auto;html=1;exitX=1;exitY=0.5;exitDx=0;exitDy=0;entryX=0;entryY=0.5;entryDx=0;entryDy=0;endArrow=none;endFill=0;" edge="1" parent="1" source="hanlL4ktnhCZCZ7IdgbA-4" target="hanlL4ktnhCZCZ7IdgbA-2">
          <mxGeometry relative="1" as="geometry" />
        </mxCell>
        <mxCell id="hanlL4ktnhCZCZ7IdgbA-4" value="Possui" style="rhombus;whiteSpace=wrap;html=1;" vertex="1" parent="1">
          <mxGeometry x="374" y="180" width="80" height="80" as="geometry" />
        </mxCell>
        <mxCell id="hanlL4ktnhCZCZ7IdgbA-8" value="Lançamento" style="ellipse;whiteSpace=wrap;html=1;" vertex="1" parent="1">
          <mxGeometry x="220" y="280" width="120" height="80" as="geometry" />
        </mxCell>
        <mxCell id="hanlL4ktnhCZCZ7IdgbA-9" value="Nome" style="ellipse;whiteSpace=wrap;html=1;" vertex="1" parent="1">
          <mxGeometry x="90" y="280" width="120" height="80" as="geometry" />
        </mxCell>
        <mxCell id="hanlL4ktnhCZCZ7IdgbA-12" value="Nome" style="ellipse;whiteSpace=wrap;html=1;" vertex="1" parent="1">
          <mxGeometry x="549" y="280" width="120" height="80" as="geometry" />
        </mxCell>
        <mxCell id="hanlL4ktnhCZCZ7IdgbA-14" value="N" style="text;html=1;align=center;verticalAlign=middle;resizable=0;points=[];autosize=1;strokeColor=none;fillColor=none;" vertex="1" parent="1">
          <mxGeometry x="279" y="190" width="30" height="30" as="geometry" />
        </mxCell>
        <mxCell id="hanlL4ktnhCZCZ7IdgbA-15" value="1" style="text;html=1;align=center;verticalAlign=middle;resizable=0;points=[];autosize=1;strokeColor=none;fillColor=none;" vertex="1" parent="1">
          <mxGeometry x="519" y="190" width="30" height="30" as="geometry" />
        </mxCell>
      </root>
    </mxGraphModel>
  </diagram>
</mxfile>
